<!DOCTYPE svg PUBLIC "-//W3C//DTD SVG 1.1//EN" "http://www.w3.org/Graphics/SVG/1.1/DTD/svg11.dtd">

<!-- Uploaded to: SVG Repo, www.svgrepo.com, Transformed by: SVG Repo Mixer Tools -->
<svg fill="#000000" height="800px" width="800px" version="1.1" id="Layer_1" xmlns="http://www.w3.org/2000/svg" xmlns:xlink="http://www.w3.org/1999/xlink" viewBox="0 0 485 485" xml:space="preserve" stroke="#000000" stroke-width="0.00485">

  <!-- White background rectangle -->
  <rect width="485" height="485" fill="#FFFFFF"/>

  <g id="SVGRepo_bgCarrier" stroke-width="0"/>
  <g id="SVGRepo_tracerCarrier" stroke-linecap="round" stroke-linejoin="round"/>
  <g id="SVGRepo_iconCarrier">
    <g>
      <path d="M250.2,174.221c-8.483-0.672-26.942-0.9-55.381,5.001c-40.523,8.416-59.224,45.826-59.224,75.132 c0,29.297,28.05,63.278,70.134,63.278c32.204,0,50.361-19.359,57.097-28.45c1.508-2.016,4.554-1.918,5.923,0.208 c1.669,2.602,4.046,6.05,7.114,9.846c3.288,4.079,7.68,8.147,11.237,11.196c3.438,2.949,8.558,2.777,11.845-0.336l27.895-26.576 c3.232-3.079,3.679-8.069,1.03-11.659c-1.538-2.083-3.479-4.773-5.878-8.155c-7.483-10.599-7.169-19.015-7.169-19.015v-98.509 c0-11.843-7.169-60.468-82.607-60.468c-61.606,0-80.382,43.863-85.197,59.949c-0.922,3.079,1.083,6.248,4.251,6.778l38.255,6.464 c2.321,0.392,4.632-0.769,5.673-2.885c4.198-8.491,16.391-29.166,35.458-29.166c24.013,0.011,24.946,19.645,24.946,19.645v22.7 C255.601,172.127,253.13,174.449,250.2,174.221z M256.231,210.654v28.722c0,15-10.327,28.147-24.968,31.399 c-3.787,0.847-8.114,1.346-13.073,1.346c-31.79,0-25.868-40.837-11.215-52.996c11.107-9.219,33.667-12.343,43.941-13.309 C253.768,205.545,256.231,207.791,256.231,210.654z"/>
      <path d="M345.529,330.171c15.433-1.866,22.214-3.807,26.887,0.325c4.676,4.124,3.038,12.54,0,22.127 c-3.035,9.577-10.54,17.571-3.274,21.508c8.491,4.598,41.184-37.68,27.592-58.68c-11.301-17.463-58.688,2.104-62.192,4.437 c-3.504,2.344-3.504,5.14-3.504,5.14S330.105,332.048,345.529,330.171z"/>
      <path d="M228.495,399.286c57.03,0,81.035-11.834,105.667-25.546c24.621-13.719,29.297-24.002,25.87-30.435 c-3.429-6.431-17.465,0.197-29.927,5.49c-12.473,5.304-50.805,19.959-105.981,19.959c-55.176,0-110.665-38.974-122.51-47.226 c-11.845-8.266-16.052,0-16.052,0s-3.579,6.853,7.333,20.262C103.794,355.195,159.197,399.286,228.495,399.286z"/>
      <path d="M0,0v485h485V0H0z M455,455H30V30h425V455z"/>
    </g>
  </g>
</svg>
